<?xml version="1.0" encoding="utf-8"?>
<!-- Generator: Adobe Illustrator 25.4.1, SVG Export Plug-In . SVG Version: 6.00 Build 0)  -->
<svg version="1.0" id="Capa_1" xmlns="http://www.w3.org/2000/svg" xmlns:xlink="http://www.w3.org/1999/xlink" x="0px"
	y="0px" viewBox="0 0 45 45" style="enable-background:new 0 0 45 45;" xml:space="preserve">
	<style type="text/css">
		.st0 {
			fill: #transparent;
			stroke: #FFFFFF;
			stroke-width: 2;
			stroke-dasharray: 210;
			stroke-dashoffset: 0;

			-webkit-animation: animacion 4s forwards;
			-moz-animation: animacion 4s forwards;
			-o-animation: animacion 4s forwards5 animation;
			animacion 4s forwards;

		}

		@-webkit-keyframes animacion {
			from {
				stroke-dashoffset: 210;
				fill: transparent;
				transform: translatex(0);

			}

			to {
				stroke-dashoffset: 0;
				fill: #FFFFFF;
				transform: translatex(-10px);

			}
		}

		@keyframes animacion {
			from {
				stroke-dashoffset: 210;
				fill: transparent;
				transform: translatex(0);

			}

			to {
				stroke-dashoffset: 0;
				fill: #FFFFFF;
				transform: translatex(-10px);

			}
		}
	</style>
	<g>
		<path class="st0" d="M42.064,20.2c0,9.954-7.434,18.173-17.055,19.403c-0.821,0.105-1.658,0.159-2.509,0.159
		c-0.252,0-0.501-0.005-0.75-0.014c-2.394-0.092-4.676-0.613-6.775-1.487c0,0-0.003-0.003-0.005-0.003
		c0.005,0.051,0.005,0.103,0.005,0.154c0,1.9-0.906,3.591-2.315,4.676c-1.023,0.791-2.309,1.26-3.705,1.26
		c-3.324,0-6.02-2.658-6.02-5.936c0-1.05,0-3.414,0-3.85V20.2c0-10.553,8.359-19.155,18.814-19.549
		C17.443,6.028,14.874,12.82,14.874,20.2c0,0.513,0.088,1.004,0.249,1.462c0.514,2.542,2.348,4.617,4.766,5.496
		c0.813,0.3,1.694,0.461,2.61,0.461c4.156,0,7.525-3.322,7.525-7.42c0-4.096-3.368-7.42-7.525-7.42
		c-0.627,0-1.237,0.076-1.817,0.221c1.289-4.409,3.53-8.419,6.485-11.802C35.719,3.289,42.064,11.004,42.064,20.2z" />
	</g>
</svg>